<svg xmlns="http://www.w3.org/2000/svg" width="600" height="400" viewBox="0 0 600 400">
  <defs>
    <linearGradient id="skyGradient" x1="0%" y1="0%" x2="0%" y2="100%">
      <stop offset="0%" style="stop-color:#FF7F50;stop-opacity:1" />
      <stop offset="100%" style="stop-color:#FFD700;stop-opacity:1" />
    </linearGradient>
    <linearGradient id="templeGradient" x1="0%" y1="0%" x2="0%" y2="100%">
      <stop offset="0%" style="stop-color:#CD853F;stop-opacity:1" />
      <stop offset="100%" style="stop-color:#8B4513;stop-opacity:1" />
    </linearGradient>
    <linearGradient id="groundGradient" x1="0%" y1="0%" x2="0%" y2="100%">
      <stop offset="0%" style="stop-color:#DAA520;stop-opacity:1" />
      <stop offset="100%" style="stop-color:#CD853F;stop-opacity:1" />
    </linearGradient>
    <linearGradient id="treeGradient" x1="0%" y1="0%" x2="100%" y2="0%">
      <stop offset="0%" style="stop-color:#228B22;stop-opacity:1" />
      <stop offset="100%" style="stop-color:#006400;stop-opacity:1" />
    </linearGradient>
  </defs>
  
  <!-- Sky with sunset colors -->
  <rect width="600" height="400" fill="url(#skyGradient)" />
  
  <!-- Sun/Moon -->
  <circle cx="150" cy="80" r="40" fill="#FFA07A" />
  
  <!-- Distant mountains -->
  <path d="M0,150 Q150,80 300,150 T600,120 V400 H0 Z" fill="#A0522D" opacity="0.6" />
  
  <!-- Ground -->
  <path d="M0,250 L600,250 L600,400 L0,400 Z" fill="url(#groundGradient)" />
  
  <!-- Main Temple Structure -->
  <g transform="translate(300, 250)">
    <!-- Base platform -->
    <rect x="-100" y="0" width="200" height="10" fill="#8B4513" />
    
    <!-- Steps -->
    <rect x="-90" y="-10" width="180" height="10" fill="#A0522D" />
    <rect x="-80" y="-20" width="160" height="10" fill="#A0522D" />
    <rect x="-70" y="-30" width="140" height="10" fill="#A0522D" />
    
    <!-- Main structure -->
    <rect x="-60" y="-80" width="120" height="50" fill="url(#templeGradient)" />
    
    <!-- Columns -->
    <rect x="-55" y="-80" width="10" height="50" fill="#CD853F" />
    <rect x="-35" y="-80" width="10" height="50" fill="#CD853F" />
    <rect x="-15" y="-80" width="10" height="50" fill="#CD853F" />
    <rect x="5" y="-80" width="10" height="50" fill="#CD853F" />
    <rect x="25" y="-80" width="10" height="50" fill="#CD853F" />
    <rect x="45" y="-80" width="10" height="50" fill="#CD853F" />
    
    <!-- Top structure -->
    <rect x="-50" y="-90" width="100" height="10" fill="#8B4513" />
    
    <!-- Temple spire/dome -->
    <path d="M-40,-90 L40,-90 L0,-130 Z" fill="#B8860B" />
    
    <!-- Ornate details on spire -->
    <rect x="-5" y="-140" width="10" height="10" fill="#FFD700" />
    
    <!-- Decorative elements -->
    <rect x="-55" y="-60" width="110" height="5" fill="#B8860B" />
    
    <!-- Temple entrance -->
    <rect x="-15" y="-30" width="30" height="30" fill="#000000" opacity="0.7" />
  </g>
  
  <!-- Smaller Temple Structure Left -->
  <g transform="translate(150, 270)">
    <!-- Base platform -->
    <rect x="-40" y="0" width="80" height="5" fill="#8B4513" />
    
    <!-- Steps -->
    <rect x="-35" y="-5" width="70" height="5" fill="#A0522D" />
    <rect x="-30" y="-10" width="60" height="5" fill="#A0522D" />
    
    <!-- Main structure -->
    <rect x="-25" y="-40" width="50" height="30" fill="url(#templeGradient)" />
    
    <!-- Columns -->
    <rect x="-20" y="-40" width="5" height="30" fill="#CD853F" />
    <rect x="-5" y="-40" width="5" height="30" fill="#CD853F" />
    <rect x="10" y="-40" width="5" height="30" fill="#CD853F" />
    
    <!-- Top structure -->
    <rect x="-20" y="-45" width="40" height="5" fill="#8B4513" />
    
    <!-- Temple spire/dome -->
    <path d="M-15,-45 L15,-45 L0,-65 Z" fill="#B8860B" />
    
    <!-- Temple entrance -->
    <rect x="-7" y="-10" width="14" height="10" fill="#000000" opacity="0.7" />
  </g>
  
  <!-- Smaller Temple Structure Right -->
  <g transform="translate(450, 260)">
    <!-- Base platform -->
    <rect x="-45" y="0" width="90" height="6" fill="#8B4513" />
    
    <!-- Steps -->
    <rect x="-40" y="-6" width="80" height="6" fill="#A0522D" />
    <rect x="-35" y="-12" width="70" height="6" fill="#A0522D" />
    
    <!-- Main structure -->
    <rect x="-30" y="-47" width="60" height="35" fill="url(#templeGradient)" />
    
    <!-- Columns -->
    <rect x="-25" y="-47" width="6" height="35" fill="#CD853F" />
    <rect x="-8" y="-47" width="6" height="35" fill="#CD853F" />
    <rect x="9" y="-47" width="6" height="35" fill="#CD853F" />
    <rect x="22" y="-47" width="6" height="35" fill="#CD853F" />
    
    <!-- Top structure -->
    <rect x="-25" y="-53" width="50" height="6" fill="#8B4513" />
    
    <!-- Temple spire/dome -->
    <path d="M-20,-53 L20,-53 L0,-78 Z" fill="#B8860B" />
    
    <!-- Temple entrance -->
    <rect x="-8" y="-12" width="16" height="12" fill="#000000" opacity="0.7" />
  </g>
  
  <!-- Trees -->
  <g transform="translate(80, 270)">
    <rect x="-5" y="-40" width="10" height="40" fill="#8B4513" />
    <ellipse cx="0" cy="-60" rx="20" ry="30" fill="url(#treeGradient)" />
  </g>
  
  <g transform="translate(520, 280)">
    <rect x="-4" y="-35" width="8" height="35" fill="#8B4513" />
    <ellipse cx="0" cy="-50" rx="15" ry="25" fill="url(#treeGradient)" />
  </g>
  
  <!-- Decorative statues/elements -->
  <g transform="translate(230, 250)">
    <rect x="-5" y="-20" width="10" height="20" fill="#CD853F" />
    <circle cx="0" cy="-25" r="5" fill="#CD853F" />
  </g>
  
  <g transform="translate(370, 250)">
    <rect x="-5" y="-20" width="10" height="20" fill="#CD853F" />
    <circle cx="0" cy="-25" r="5" fill="#CD853F" />
  </g>
  
  <!-- Birds -->
  <g fill="none" stroke="#333" stroke-width="1.5">
    <path d="M100,100 C105,95 110,100 115,95" />
    <path d="M120,90 C125,85 130,90 135,85" />
    <path d="M500,110 C505,105 510,110 515,105" />
    <path d="M480,120 C485,115 490,120 495,115" />
  </g>
  
  <!-- Clouds -->
  <g fill="#FFA07A" opacity="0.5">
    <ellipse cx="400" cy="80" rx="40" ry="20" />
    <ellipse cx="430" cy="85" rx="30" ry="15" />
    <ellipse cx="370" cy="85" rx="25" ry="15" />
  </g>
</svg>