<svg xmlns="http://www.w3.org/2000/svg" width="600" height="400" viewBox="0 0 600 400">
  <defs>
    <linearGradient id="skyGradient" x1="0%" y1="0%" x2="0%" y2="100%">
      <stop offset="0%" style="stop-color:#87CEEB;stop-opacity:1" />
      <stop offset="100%" style="stop-color:#1E90FF;stop-opacity:1" />
    </linearGradient>
    <linearGradient id="sandGradient" x1="0%" y1="0%" x2="0%" y2="100%">
      <stop offset="0%" style="stop-color:#F5DEB3;stop-opacity:1" />
      <stop offset="100%" style="stop-color:#D2B48C;stop-opacity:1" />
    </linearGradient>
    <linearGradient id="waterGradient" x1="0%" y1="0%" x2="0%" y2="100%">
      <stop offset="0%" style="stop-color:#00BFFF;stop-opacity:0.8" />
      <stop offset="100%" style="stop-color:#1E90FF;stop-opacity:0.9" />
    </linearGradient>
    <linearGradient id="palmGradient" x1="0%" y1="0%" x2="100%" y2="0%">
      <stop offset="0%" style="stop-color:#228B22;stop-opacity:1" />
      <stop offset="100%" style="stop-color:#006400;stop-opacity:1" />
    </linearGradient>
  </defs>
  
  <!-- Sky -->
  <rect width="600" height="400" fill="url(#skyGradient)" />
  
  <!-- Sun -->
  <circle cx="500" cy="80" r="40" fill="#FFD700" />
  
  <!-- Distant mountains -->
  <path d="M0,150 Q150,50 300,150 T600,150 V400 H0 Z" fill="#87CEFA" opacity="0.5" />
  
  <!-- Ocean -->
  <path d="M0,250 L600,250 L600,400 L0,400 Z" fill="url(#waterGradient)" />
  
  <!-- Beach -->
  <path d="M0,250 Q150,230 300,250 T600,250 V300 Q450,280 300,300 T0,300 Z" fill="url(#sandGradient)" />
  
  <!-- Waves -->
  <path d="M0,270 Q50,265 100,270 T200,270 T300,270 T400,270 T500,270 T600,270" stroke="white" stroke-width="2" fill="none" opacity="0.5" />
  <path d="M0,290 Q50,285 100,290 T200,290 T300,290 T400,290 T500,290 T600,290" stroke="white" stroke-width="2" fill="none" opacity="0.5" />
  
  <!-- Palm tree 1 -->
  <g transform="translate(100, 250)">
    <!-- Trunk -->
    <rect x="-5" y="0" width="10" height="50" fill="#8B4513" />
    
    <!-- Leaves -->
    <g transform="translate(0, 0)">
      <path d="M0,0 C10,-20 30,-25 50,-15 L0,0 Z" fill="url(#palmGradient)" />
      <path d="M0,0 C-10,-20 -30,-25 -50,-15 L0,0 Z" fill="url(#palmGradient)" />
      <path d="M0,0 C5,-15 15,-35 10,-50 L0,0 Z" fill="url(#palmGradient)" />
      <path d="M0,0 C-5,-15 -15,-35 -10,-50 L0,0 Z" fill="url(#palmGradient)" />
      <path d="M0,0 C15,-10 40,-5 45,5 L0,0 Z" fill="url(#palmGradient)" />
      <path d="M0,0 C-15,-10 -40,-5 -45,5 L0,0 Z" fill="url(#palmGradient)" />
    </g>
  </g>
  
  <!-- Palm tree 2 -->
  <g transform="translate(500, 250)">
    <!-- Trunk -->
    <rect x="-6" y="0" width="12" height="60" fill="#8B4513" />
    
    <!-- Leaves -->
    <g transform="translate(0, 0)">
      <path d="M0,0 C15,-25 40,-30 60,-20 L0,0 Z" fill="url(#palmGradient)" />
      <path d="M0,0 C-15,-25 -40,-30 -60,-20 L0,0 Z" fill="url(#palmGradient)" />
      <path d="M0,0 C8,-20 20,-45 15,-65 L0,0 Z" fill="url(#palmGradient)" />
      <path d="M0,0 C-8,-20 -20,-45 -15,-65 L0,0 Z" fill="url(#palmGradient)" />
      <path d="M0,0 C20,-15 50,-10 55,5 L0,0 Z" fill="url(#palmGradient)" />
      <path d="M0,0 C-20,-15 -50,-10 -55,5 L0,0 Z" fill="url(#palmGradient)" />
    </g>
  </g>
  
  <!-- Small boat -->
  <g transform="translate(400, 320)">
    <path d="M-20,0 L20,0 L15,-10 L-15,-10 Z" fill="#8B4513" />
    <rect x="-2" y="-25" width="4" height="15" fill="#A0522D" />
    <path d="M0,-25 L0,-10 L15,-15 Z" fill="white" />
  </g>
  
  <!-- Beach umbrella -->
  <g transform="translate(200, 270)">
    <rect x="-1" y="0" width="2" height="30" fill="#A0522D" />
    <path d="M-15,-5 L15,-5 L0,-25 Z" fill="#FF6347" />
  </g>
  
  <!-- Beach chair -->
  <g transform="translate(220, 280)">
    <rect x="-10" y="-5" width="20" height="10" fill="#4682B4" transform="skewX(10)" />
  </g>
  
  <!-- Clouds -->
  <g fill="white" opacity="0.8">
    <ellipse cx="100" cy="80" rx="30" ry="20" />
    <ellipse cx="130" cy="85" rx="25" ry="15" />
    <ellipse cx="70" cy="85" rx="20" ry="15" />
    
    <ellipse cx="300" cy="60" rx="35" ry="20" />
    <ellipse cx="330" cy="65" rx="25" ry="15" />
    <ellipse cx="270" cy="65" rx="20" ry="15" />
  </g>
  
  <!-- Birds -->
  <g fill="none" stroke="#333" stroke-width="2">
    <path d="M250,120 C255,115 260,120 265,115" />
    <path d="M270,110 C275,105 280,110 285,105" />
    <path d="M350,100 C355,95 360,100 365,95" />
  </g>
</svg>