<svg xmlns="http://www.w3.org/2000/svg" width="600" height="400" viewBox="0 0 600 400">
  <defs>
    <linearGradient id="skyGradient" x1="0%" y1="0%" x2="0%" y2="100%">
      <stop offset="0%" style="stop-color:#87CEEB;stop-opacity:1" />
      <stop offset="100%" style="stop-color:#ADD8E6;stop-opacity:1" />
    </linearGradient>
    <linearGradient id="mountainGradient1" x1="0%" y1="0%" x2="0%" y2="100%">
      <stop offset="0%" style="stop-color:#A9A9A9;stop-opacity:1" />
      <stop offset="100%" style="stop-color:#696969;stop-opacity:1" />
    </linearGradient>
    <linearGradient id="mountainGradient2" x1="0%" y1="0%" x2="0%" y2="100%">
      <stop offset="0%" style="stop-color:#808080;stop-opacity:1" />
      <stop offset="100%" style="stop-color:#4F4F4F;stop-opacity:1" />
    </linearGradient>
    <linearGradient id="snowGradient" x1="0%" y1="0%" x2="0%" y2="100%">
      <stop offset="0%" style="stop-color:#FFFFFF;stop-opacity:1" />
      <stop offset="100%" style="stop-color:#F0F8FF;stop-opacity:1" />
    </linearGradient>
    <linearGradient id="groundGradient" x1="0%" y1="0%" x2="0%" y2="100%">
      <stop offset="0%" style="stop-color:#228B22;stop-opacity:1" />
      <stop offset="100%" style="stop-color:#006400;stop-opacity:1" />
    </linearGradient>
    <linearGradient id="lakeGradient" x1="0%" y1="0%" x2="0%" y2="100%">
      <stop offset="0%" style="stop-color:#4682B4;stop-opacity:0.8" />
      <stop offset="100%" style="stop-color:#1E90FF;stop-opacity:0.9" />
    </linearGradient>
    <linearGradient id="treeGradient" x1="0%" y1="0%" x2="100%" y2="0%">
      <stop offset="0%" style="stop-color:#228B22;stop-opacity:1" />
      <stop offset="100%" style="stop-color:#006400;stop-opacity:1" />
    </linearGradient>
    <linearGradient id="cabinGradient" x1="0%" y1="0%" x2="0%" y2="100%">
      <stop offset="0%" style="stop-color:#8B4513;stop-opacity:1" />
      <stop offset="100%" style="stop-color:#A0522D;stop-opacity:1" />
    </linearGradient>
  </defs>
  
  <!-- Sky -->
  <rect width="600" height="400" fill="url(#skyGradient)" />
  
  <!-- Sun -->
  <circle cx="500" cy="80" r="40" fill="#FFFF00" opacity="0.8" />
  
  <!-- Background Mountains with Snow -->
  <path d="M-50,400 L100,150 L250,250 L400,100 L550,200 L650,150 L650,400 Z" fill="url(#mountainGradient1)" />
  
  <!-- Snow caps on background mountains -->
  <path d="M100,150 L130,180 L160,160 L190,190 L220,170 L250,250" fill="url(#snowGradient)" />
  <path d="M400,100 L430,130 L460,110 L490,140 L520,120 L550,200" fill="url(#snowGradient)" />
  
  <!-- Middle Mountains -->
  <path d="M-100,400 L50,200 L150,280 L250,180 L350,250 L450,150 L550,230 L650,180 L700,400 Z" fill="url(#mountainGradient2)" />
  
  <!-- Snow patches on middle mountains -->
  <path d="M250,180 L270,200 L290,190 L310,210 L330,195 L350,250" fill="url(#snowGradient)" />
  <path d="M450,150 L470,170 L490,160 L510,180 L530,165 L550,230" fill="url(#snowGradient)" />
  
  <!-- Foreground Hills -->
  <path d="M-100,400 L0,300 L100,350 L200,320 L300,360 L400,330 L500,370 L600,340 L700,400 Z" fill="url(#groundGradient)" />
  
  <!-- Lake/Pond -->
  <ellipse cx="300" cy="380" rx="150" ry="40" fill="url(#lakeGradient)" />
  
  <!-- Lake Reflection -->
  <path d="M280,380 Q300,375 320,380" stroke="white" stroke-width="1" fill="none" opacity="0.5" />
  <path d="M260,380 Q300,370 340,380" stroke="white" stroke-width="1" fill="none" opacity="0.5" />
  
  <!-- Mountain Cabin -->
  <g transform="translate(180, 320)">
    <!-- Cabin base -->
    <rect x="-30" y="-20" width="60" height="30" fill="url(#cabinGradient)" />
    
    <!-- Roof -->
    <path d="M-35,-20 L0,-45 L35,-20 Z" fill="#8B4513" />
    
    <!-- Door -->
    <rect x="-10" y="-5" width="15" height="25" fill="#4F4F4F" />
    
    <!-- Windows -->
    <rect x="15" y="-10" width="10" height="10" fill="#87CEEB" />
    <line x1="15" y1="-5" x2="25" y2="-5" stroke="#FFFFFF" stroke-width="1" />
    <line x1="20" y1="-10" x2="20" y2="0" stroke="#FFFFFF" stroke-width="1" />
    
    <!-- Chimney -->
    <rect x="20" y="-45" width="8" height="15" fill="#A9A9A9" />
    <rect x="19" y="-48" width="10" height="3" fill="#696969" />
    
    <!-- Smoke -->
    <path d="M24,-50 C28,-55 30,-60 28,-65 C32,-63 34,-68 32,-72 C36,-70 38,-75 36,-80" stroke="#DCDCDC" stroke-width="2" fill="none" opacity="0.7" />
  </g>
  
  <!-- Trees -->
  <!-- Pine tree 1 -->
  <g transform="translate(100, 330)">
    <rect x="-3" y="-30" width="6" height="30" fill="#8B4513" />
    <polygon points="0,-80 -20,-30 20,-30" fill="#006400" />
    <polygon points="0,-70 -18,-25 18,-25" fill="#006400" />
    <polygon points="0,-60 -15,-20 15,-20" fill="#006400" />
  </g>
  
  <!-- Pine tree 2 -->
  <g transform="translate(130, 340)">
    <rect x="-2" y="-25" width="4" height="25" fill="#8B4513" />
    <polygon points="0,-65 -15,-25 15,-25" fill="#006400" />
    <polygon points="0,-55 -13,-20 13,-20" fill="#006400" />
    <polygon points="0,-45 -10,-15 10,-15" fill="#006400" />
  </g>
  
  <!-- Pine tree 3 -->
  <g transform="translate(400, 330)">
    <rect x="-3" y="-30" width="6" height="30" fill="#8B4513" />
    <polygon points="0,-80 -20,-30 20,-30" fill="#006400" />
    <polygon points="0,-70 -18,-25 18,-25" fill="#006400" />
    <polygon points="0,-60 -15,-20 15,-20" fill="#006400" />
  </g>
  
  <!-- Pine tree 4 -->
  <g transform="translate(440, 335)">
    <rect x="-2.5" y="-25" width="5" height="25" fill="#8B4513" />
    <polygon points="0,-70 -18,-25 18,-25" fill="#006400" />
    <polygon points="0,-60 -15,-20 15,-20" fill="#006400" />
    <polygon points="0,-50 -12,-15 12,-15" fill="#006400" />
  </g>
  
  <!-- Pine tree 5 -->
  <g transform="translate(470, 340)">
    <rect x="-2" y="-20" width="4" height="20" fill="#8B4513" />
    <polygon points="0,-60 -15,-20 15,-20" fill="#006400" />
    <polygon points="0,-50 -12,-15 12,-15" fill="#006400" />
    <polygon points="0,-40 -10,-10 10,-10" fill="#006400" />
  </g>
  
  <!-- Clouds -->
  <g fill="white" opacity="0.8">
    <ellipse cx="100" cy="80" rx="30" ry="20" />
    <ellipse cx="130" cy="85" rx="25" ry="15" />
    <ellipse cx="70" cy="85" rx="20" ry="15" />
    
    <ellipse cx="300" cy="60" rx="35" ry="20" />
    <ellipse cx="330" cy="65" rx="25" ry="15" />
    <ellipse cx="270" cy="65" rx="20" ry="15" />
  </g>
  
  <!-- Birds -->
  <g fill="none" stroke="#333" stroke-width="1.5">
    <path d="M250,120 C255,115 260,120 265,115" />
    <path d="M270,110 C275,105 280,110 285,105" />
    <path d="M350,100 C355,95 360,100 365,95" />
  </g>
  
  <!-- Hiking trail -->
  <path d="M150,400 C200,380 250,390 300,380 C350,370 400,380 450,400" stroke="#8B4513" stroke-width="3" fill="none" stroke-dasharray="5,3" />
</svg>