<svg xmlns="http://www.w3.org/2000/svg" width="1200" height="400" viewBox="0 0 1200 400">
  <defs>
    <linearGradient id="grad1" x1="0%" y1="0%" x2="100%" y2="100%">
      <stop offset="0%" style="stop-color:#2c3e50;stop-opacity:1" />
      <stop offset="100%" style="stop-color:#1a1a2e;stop-opacity:1" />
    </linearGradient>
  </defs>
  <rect width="1200" height="400" fill="url(#grad1)" />
  
  <!-- Abstract road/path -->
  <path d="M-100,250 C200,230 400,280 600,250 C800,220 1000,270 1300,240" stroke="#ffffff" stroke-width="5" fill="none" opacity="0.2" />
  
  <!-- Dotted pattern for texture -->
  <g opacity="0.1">
    <circle cx="100" cy="50" r="2" fill="white" />
    <circle cx="150" cy="80" r="2" fill="white" />
    <circle cx="200" cy="40" r="2" fill="white" />
    <circle cx="250" cy="90" r="2" fill="white" />
    <circle cx="300" cy="60" r="2" fill="white" />
    <circle cx="350" cy="30" r="2" fill="white" />
    <circle cx="400" cy="70" r="2" fill="white" />
    <circle cx="450" cy="50" r="2" fill="white" />
    <circle cx="500" cy="90" r="2" fill="white" />
    <circle cx="550" cy="40" r="2" fill="white" />
    <circle cx="600" cy="60" r="2" fill="white" />
    <circle cx="650" cy="30" r="2" fill="white" />
    <circle cx="700" cy="80" r="2" fill="white" />
    <circle cx="750" cy="50" r="2" fill="white" />
    <circle cx="800" cy="70" r="2" fill="white" />
    <circle cx="850" cy="40" r="2" fill="white" />
    <circle cx="900" cy="90" r="2" fill="white" />
    <circle cx="950" cy="60" r="2" fill="white" />
    <circle cx="1000" cy="30" r="2" fill="white" />
    <circle cx="1050" cy="70" r="2" fill="white" />
    <circle cx="1100" cy="50" r="2" fill="white" />
    <circle cx="1150" cy="80" r="2" fill="white" />
    
    <circle cx="120" cy="120" r="2" fill="white" />
    <circle cx="170" cy="150" r="2" fill="white" />
    <circle cx="220" cy="110" r="2" fill="white" />
    <circle cx="270" cy="160" r="2" fill="white" />
    <circle cx="320" cy="130" r="2" fill="white" />
    <circle cx="370" cy="100" r="2" fill="white" />
    <circle cx="420" cy="140" r="2" fill="white" />
    <circle cx="470" cy="120" r="2" fill="white" />
    <circle cx="520" cy="160" r="2" fill="white" />
    <circle cx="570" cy="110" r="2" fill="white" />
    <circle cx="620" cy="130" r="2" fill="white" />
    <circle cx="670" cy="100" r="2" fill="white" />
    <circle cx="720" cy="150" r="2" fill="white" />
    <circle cx="770" cy="120" r="2" fill="white" />
    <circle cx="820" cy="140" r="2" fill="white" />
    <circle cx="870" cy="110" r="2" fill="white" />
    <circle cx="920" cy="160" r="2" fill="white" />
    <circle cx="970" cy="130" r="2" fill="white" />
    <circle cx="1020" cy="100" r="2" fill="white" />
    <circle cx="1070" cy="140" r="2" fill="white" />
    <circle cx="1120" cy="120" r="2" fill="white" />
    <circle cx="1170" cy="150" r="2" fill="white" />
    
    <circle cx="100" cy="190" r="2" fill="white" />
    <circle cx="150" cy="220" r="2" fill="white" />
    <circle cx="200" cy="180" r="2" fill="white" />
    <circle cx="250" cy="230" r="2" fill="white" />
    <circle cx="300" cy="200" r="2" fill="white" />
    <circle cx="350" cy="170" r="2" fill="white" />
    <circle cx="400" cy="210" r="2" fill="white" />
    <circle cx="450" cy="190" r="2" fill="white" />
    <circle cx="500" cy="230" r="2" fill="white" />
    <circle cx="550" cy="180" r="2" fill="white" />
    <circle cx="600" cy="200" r="2" fill="white" />
    <circle cx="650" cy="170" r="2" fill="white" />
    <circle cx="700" cy="220" r="2" fill="white" />
    <circle cx="750" cy="190" r="2" fill="white" />
    <circle cx="800" cy="210" r="2" fill="white" />
    <circle cx="850" cy="180" r="2" fill="white" />
    <circle cx="900" cy="230" r="2" fill="white" />
    <circle cx="950" cy="200" r="2" fill="white" />
    <circle cx="1000" cy="170" r="2" fill="white" />
    <circle cx="1050" cy="210" r="2" fill="white" />
    <circle cx="1100" cy="190" r="2" fill="white" />
    <circle cx="1150" cy="220" r="2" fill="white" />
    
    <circle cx="120" cy="260" r="2" fill="white" />
    <circle cx="170" cy="290" r="2" fill="white" />
    <circle cx="220" cy="250" r="2" fill="white" />
    <circle cx="270" cy="300" r="2" fill="white" />
    <circle cx="320" cy="270" r="2" fill="white" />
    <circle cx="370" cy="240" r="2" fill="white" />
    <circle cx="420" cy="280" r="2" fill="white" />
    <circle cx="470" cy="260" r="2" fill="white" />
    <circle cx="520" cy="300" r="2" fill="white" />
    <circle cx="570" cy="250" r="2" fill="white" />
    <circle cx="620" cy="270" r="2" fill="white" />
    <circle cx="670" cy="240" r="2" fill="white" />
    <circle cx="720" cy="290" r="2" fill="white" />
    <circle cx="770" cy="260" r="2" fill="white" />
    <circle cx="820" cy="280" r="2" fill="white" />
    <circle cx="870" cy="250" r="2" fill="white" />
    <circle cx="920" cy="300" r="2" fill="white" />
    <circle cx="970" cy="270" r="2" fill="white" />
    <circle cx="1020" cy="240" r="2" fill="white" />
    <circle cx="1070" cy="280" r="2" fill="white" />
    <circle cx="1120" cy="260" r="2" fill="white" />
    <circle cx="1170" cy="290" r="2" fill="white" />
    
    <circle cx="100" cy="330" r="2" fill="white" />
    <circle cx="150" cy="360" r="2" fill="white" />
    <circle cx="200" cy="320" r="2" fill="white" />
    <circle cx="250" cy="370" r="2" fill="white" />
    <circle cx="300" cy="340" r="2" fill="white" />
    <circle cx="350" cy="310" r="2" fill="white" />
    <circle cx="400" cy="350" r="2" fill="white" />
    <circle cx="450" cy="330" r="2" fill="white" />
    <circle cx="500" cy="370" r="2" fill="white" />
    <circle cx="550" cy="320" r="2" fill="white" />
    <circle cx="600" cy="340" r="2" fill="white" />
    <circle cx="650" cy="310" r="2" fill="white" />
    <circle cx="700" cy="360" r="2" fill="white" />
    <circle cx="750" cy="330" r="2" fill="white" />
    <circle cx="800" cy="350" r="2" fill="white" />
    <circle cx="850" cy="320" r="2" fill="white" />
    <circle cx="900" cy="370" r="2" fill="white" />
    <circle cx="950" cy="340" r="2" fill="white" />
    <circle cx="1000" cy="310" r="2" fill="white" />
    <circle cx="1050" cy="350" r="2" fill="white" />
    <circle cx="1100" cy="330" r="2" fill="white" />
    <circle cx="1150" cy="360" r="2" fill="white" />
  </g>
  
  <!-- Abstract car silhouettes -->
  <g opacity="0.2">
    <rect x="200" y="250" width="40" height="20" rx="5" fill="white" />
    <rect x="600" y="250" width="40" height="20" rx="5" fill="white" />
    <rect x="900" y="250" width="40" height="20" rx="5" fill="white" />
  </g>
</svg>