<svg xmlns="http://www.w3.org/2000/svg" width="200" height="200" viewBox="0 0 200 200">
  <defs>
    <linearGradient id="backgroundGradient" x1="0%" y1="0%" x2="100%" y2="100%">
      <stop offset="0%" style="stop-color:#f5f7fa;stop-opacity:1" />
      <stop offset="100%" style="stop-color:#c3cfe2;stop-opacity:1" />
    </linearGradient>
  </defs>
  
  <!-- Background circle -->
  <circle cx="100" cy="100" r="100" fill="url(#backgroundGradient)" />
  
  <!-- Business man silhouette -->
  <g transform="translate(100, 85)">
    <!-- Head -->
    <circle cx="0" cy="-40" r="30" fill="#4a5568" />
    
    <!-- Suit/Body -->
    <path d="M-35,30 L-25,-15 L-10,-25 L0,-10 L10,-25 L25,-15 L35,30 Z" fill="#2d3748" />
    
    <!-- Shirt -->
    <path d="M-10,-25 L0,-10 L10,-25 L0,-20 Z" fill="#f7fafc" />
    
    <!-- Tie -->
    <path d="M-2,-20 L0,-10 L2,-20 L0,0 Z" fill="#e53e3e" />
    
    <!-- Face features (simplified) -->
    <ellipse cx="-10" cy="-45" rx="3" ry="2" fill="#2d3748" />
    <ellipse cx="10" cy="-45" rx="3" ry="2" fill="#2d3748" />
    <path d="M-5,-35 C-3,-32 3,-32 5,-35" stroke="#2d3748" stroke-width="1.5" fill="none" />
    
    <!-- Hair -->
    <path d="M-25,-55 C-20,-70 20,-70 25,-55 C25,-55 15,-65 0,-65 C-15,-65 -25,-55 -25,-55 Z" fill="#2d3748" />
  </g>
</svg>