<svg xmlns="http://www.w3.org/2000/svg" width="200" height="200" viewBox="0 0 200 200">
  <defs>
    <linearGradient id="backgroundGradient" x1="0%" y1="0%" x2="100%" y2="100%">
      <stop offset="0%" style="stop-color:#fff1eb;stop-opacity:1" />
      <stop offset="100%" style="stop-color:#ace0f9;stop-opacity:1" />
    </linearGradient>
  </defs>
  
  <!-- Background circle -->
  <circle cx="100" cy="100" r="100" fill="url(#backgroundGradient)" />
  
  <!-- Woman silhouette -->
  <g transform="translate(100, 85)">
    <!-- Head -->
    <circle cx="0" cy="-40" r="30" fill="#805ad5" />
    
    <!-- Hair -->
    <path d="M-30,-40 C-30,-65 30,-65 30,-40 C30,-40 25,-75 0,-70 C-25,-75 -30,-40 -30,-40 Z" fill="#4a5568" />
    <path d="M-30,-40 C-30,-15 -20,-10 -20,0 C-20,0 -25,-15 -30,-40 Z" fill="#4a5568" />
    <path d="M30,-40 C30,-15 20,-10 20,0 C20,0 25,-15 30,-40 Z" fill="#4a5568" />
    
    <!-- Dress/Body -->
    <path d="M-30,30 L-20,-15 L-10,-25 L0,-10 L10,-25 L20,-15 L30,30 Z" fill="#d53f8c" />
    
    <!-- Necklace -->
    <path d="M-10,-25 C-5,-28 5,-28 10,-25" stroke="#ecc94b" stroke-width="2" fill="none" />
    <circle cx="0" cy="-23" r="2" fill="#ecc94b" />
    
    <!-- Face features (simplified) -->
    <ellipse cx="-10" cy="-45" rx="3" ry="2" fill="#2d3748" />
    <ellipse cx="10" cy="-45" rx="3" ry="2" fill="#2d3748" />
    <path d="M-5,-35 C-3,-32 3,-32 5,-35" stroke="#2d3748" stroke-width="1.5" fill="none" />
    
    <!-- Earrings -->
    <circle cx="-30" cy="-40" r="3" fill="#ecc94b" />
    <circle cx="30" cy="-40" r="3" fill="#ecc94b" />
  </g>
</svg>